<?xml version="1.0" standalone="no"?><!DOCTYPE svg PUBLIC "-//W3C//DTD SVG 1.1//EN" "http://www.w3.org/Graphics/SVG/1.1/DTD/svg11.dtd"><svg t="1593570282664" class="icon" viewBox="0 0 1024 1024" version="1.1" xmlns="http://www.w3.org/2000/svg" p-id="10170" xmlns:xlink="http://www.w3.org/1999/xlink" width="32" height="32"><defs><style type="text/css"></style></defs><path d="M572.2 530c-114.3 0-207.3-93-207.3-207.3s93-207.3 207.3-207.3c114.3 0 207.3 93 207.3 207.3S686.5 530 572.2 530z m0-364.7c-86.8 0-157.3 70.6-157.3 157.3S485.4 480 572.2 480s157.3-70.6 157.3-157.3S659 165.3 572.2 165.3zM279.1 515.8c-3 0-6-0.5-9-1.7-35.4-13.7-65.7-37.5-87.5-68.7-22.4-32-34.2-69.7-34.2-108.8 0-104.9 85.4-190.3 190.3-190.3 13.8 0 25 11.2 25 25s-11.2 25-25 25c-77.4 0-140.3 62.9-140.3 140.3 0 57.6 36.1 110.2 89.7 130.9 12.9 5 19.3 19.5 14.3 32.3-3.8 9.9-13.3 16-23.3 16zM932 888.6c-13.8 0-25-11.2-25-25 0-106.8-49.2-204.8-135-268.7-11.1-8.2-13.4-23.9-5.1-35 8.2-11.1 23.9-13.4 35-5.1C849 589.9 888 636 914.7 688.1c28.1 54.6 42.3 113.7 42.3 175.5 0 13.8-11.2 25-25 25z" p-id="10171" fill="#ffffff"></path><path d="M92 784.5c-1 0-2.1-0.1-3.1-0.2-13.7-1.7-23.4-14.2-21.7-27.9 7.6-61.4 29-118.2 63.5-169 33-48.4 77.3-89.3 128.4-118.4 12-6.8 27.3-2.6 34.1 9.4 6.8 12 2.6 27.3-9.4 34.1-93 52.9-153.9 144-167 250-1.6 12.7-12.3 22-24.8 22zM212.4 889.8c-13.8 0-25-11.2-25-25 0-51.9 10.2-102.3 30.3-149.8 19.4-45.8 47.1-87 82.5-122.3 35.3-35.3 76.5-63.1 122.3-82.5 47.5-20.1 97.9-30.3 149.8-30.3 13.8 0 25 11.2 25 25s-11.2 25-25 25c-184.6 0-334.8 150.2-334.8 334.8-0.1 13.9-11.3 25.1-25.1 25.1z" p-id="10172" fill="#ffffff"></path></svg>