<?xml version="1.0" standalone="no"?><!DOCTYPE svg PUBLIC "-//W3C//DTD SVG 1.1//EN" "http://www.w3.org/Graphics/SVG/1.1/DTD/svg11.dtd"><svg t="1593570393035" class="icon" viewBox="0 0 1024 1024" version="1.1" xmlns="http://www.w3.org/2000/svg" p-id="12525" xmlns:xlink="http://www.w3.org/1999/xlink" width="32" height="32"><defs><style type="text/css"></style></defs><path d="M806.4 265.6c-62.4-62.4-160-73.6-235.2-25.6-12.8 8-24 16-33.6 27.2l-1.6 1.6-3.2-1.6c-9.6-9.6-20.8-19.2-33.6-27.2-89.6-56-208-28.8-262.4 60.8-36.8 60.8-38.4 136-1.6 198.4 43.2 68.8 224 264 232 272 38.4 38.4 100.8 38.4 139.2 1.6l1.6-1.6c20.8-22.4 203.2-217.6 232-273.6 41.6-75.2 28.8-169.6-33.6-232z m-25.6 200l-1.6 1.6c-17.6 33.6-145.6 177.6-220.8 259.2-12.8 12.8-33.6 12.8-48 1.6-1.6-1.6-184-198.4-224-260.8-28.8-49.6-20.8-113.6 19.2-153.6 41.6-41.6 107.2-49.6 158.4-17.6 8 4.8 16 11.2 22.4 17.6L512 336c12.8 12.8 32 12.8 44.8 0l25.6-25.6c6.4-6.4 14.4-12.8 22.4-17.6 49.6-32 115.2-24 156.8 17.6 41.6 41.6 49.6 105.6 19.2 155.2z" p-id="12526" fill="#ffffff"></path><path d="M702.4 468.8h-96c-6.4 0-12.8 3.2-14.4 9.6l-30.4 70.4-35.2-131.2c-1.6-6.4-8-11.2-14.4-11.2s-12.8 3.2-16 8l-27.2 54.4h-102.4c-9.6 0-16 6.4-16 16s6.4 16 16 16h112c6.4 0 11.2-3.2 14.4-8l12.8-27.2 38.4 136c1.6 6.4 8 11.2 14.4 11.2h1.6c6.4 0 12.8-3.2 14.4-9.6l43.2-102.4H704c9.6 0 16-6.4 16-16s-8-16-17.6-16z" p-id="12527" fill="#ffffff"></path></svg>