<?xml version="1.0" standalone="no"?><!DOCTYPE svg PUBLIC "-//W3C//DTD SVG 1.1//EN" "http://www.w3.org/Graphics/SVG/1.1/DTD/svg11.dtd"><svg t="1593569388902" class="icon" viewBox="0 0 1024 1024" version="1.1" xmlns="http://www.w3.org/2000/svg" p-id="5350" xmlns:xlink="http://www.w3.org/1999/xlink" width="32" height="32"><defs><style type="text/css"></style></defs><path d="M143.36 491.52h286.72a20.48 20.48 0 0 1 0 40.96H143.36a20.48 20.48 0 0 1 0-40.96z" p-id="5351" fill="#ffffff"></path><path d="M491.52 901.12H122.88a40.96 40.96 0 0 1-40.96-40.96V122.88a40.96 40.96 0 0 1 40.96-40.96h614.4a40.96 40.96 0 0 1 40.96 40.96v389.12h40.96V122.88a81.92 81.92 0 0 0-81.92-81.92H122.88a81.92 81.92 0 0 0-81.92 81.92v737.28a81.92 81.92 0 0 0 81.92 81.92h368.64z" p-id="5352" fill="#ffffff"></path><path d="M163.84 307.2H143.36a20.48 20.48 0 0 0 0 40.96h20.48zM716.8 307.2H204.8v40.96h512a20.48 20.48 0 0 0 0-40.96zM889.856 574.464c-105.0624-63.8976-173.2608 57.344-173.2608 57.344s-68.4032-121.0368-173.2608-57.344c-182.0672 110.592 175.104 369.8688 175.104 369.8688s353.4848-259.072 171.4176-369.8688zM716.8 868.5568s-257.4336-180.8384-150.1184-243.0976c81.92-47.9232 149.504 84.7872 149.504 84.7872s44.2368-132.7104 148.6848-86.8352C962.56 683.008 716.8 868.5568 716.8 868.5568z" p-id="5353" fill="#ffffff"></path></svg>