<?xml version="1.0" standalone="no"?><!DOCTYPE svg PUBLIC "-//W3C//DTD SVG 1.1//EN" "http://www.w3.org/Graphics/SVG/1.1/DTD/svg11.dtd"><svg t="1593570355769" class="icon" viewBox="0 0 1024 1024" version="1.1" xmlns="http://www.w3.org/2000/svg" p-id="11739" xmlns:xlink="http://www.w3.org/1999/xlink" width="32" height="32"><defs><style type="text/css"></style></defs><path d="M872.533333 659.2c-17.066667 0-32 14.933333-32 32 0 70.4-46.933333 128-106.666666 128H292.266667c-59.733333 0-106.666667-57.6-106.666667-128 0-17.066667-14.933333-32-32-32s-32 14.933333-32 32c0 106.666667 76.8 192 170.666667 192h441.6c93.866667 0 170.666667-85.333333 170.666666-192 0-17.066667-14.933333-32-32-32z" p-id="11740" fill="#ffffff"></path><path d="M490.666667 674.133333c6.4 6.4 14.933333 8.533333 23.466666 8.533334s17.066667-2.133333 23.466667-8.533334l121.6-121.6c12.8-12.8 12.8-32 0-44.8-12.8-12.8-32-12.8-44.8 0l-66.133333 66.133334v-362.666667c0-17.066667-14.933333-32-32-32s-32 14.933333-32 32v362.666667l-66.133334-66.133334c-12.8-12.8-32-12.8-44.8 0-12.8 12.8-12.8 32 0 44.8l117.333334 121.6z" p-id="11741" fill="#ffffff"></path></svg>