<?xml version="1.0" standalone="no"?><!DOCTYPE svg PUBLIC "-//W3C//DTD SVG 1.1//EN" "http://www.w3.org/Graphics/SVG/1.1/DTD/svg11.dtd"><svg t="1593570217055" class="icon" viewBox="0 0 1024 1024" version="1.1" xmlns="http://www.w3.org/2000/svg" p-id="9284" xmlns:xlink="http://www.w3.org/1999/xlink" width="32" height="32"><defs><style type="text/css"></style></defs><path d="M656.32 160l60.48 36.608-85.152 154.656H832c35.36 0 64 28.704 64 64.096v416.544A64.032 64.032 0 0 1 832 896H192c-35.36 0-64-28.704-64-64.096V415.36c0-35.392 28.64-64.096 64-64.096h200.32L307.2 196.608 367.68 160l104.736 190.272-1.664 0.992h82.464l-1.6-0.96L656.32 160zM832 415.36H192v416.544h640V415.36z m-136.704 97.12l45.248 45.312-181.024 181.248-135.744-135.968-90.528 90.656L288 648.416l135.776-135.936 135.776 135.904 135.744-135.904z" p-id="9285" fill="#ffffff"></path></svg>