<?xml version="1.0" standalone="no"?><!DOCTYPE svg PUBLIC "-//W3C//DTD SVG 1.1//EN" "http://www.w3.org/Graphics/SVG/1.1/DTD/svg11.dtd"><svg t="1593847448118" class="icon" viewBox="0 0 1024 1024" version="1.1" xmlns="http://www.w3.org/2000/svg" p-id="5799" xmlns:xlink="http://www.w3.org/1999/xlink" width="64" height="64"><defs><style type="text/css"></style></defs><path d="M143.104 844.864l0-515.2 181.248 0L324.352 156.736l353.28 0c12.096 0 21.888 10.688 21.888 23.744L699.52 453.12l99.648 0L799.168 93.824C799.104 77.312 785.728 64 769.344 64L286.72 64l-243.2 228.416 0 637.696C43.52 946.624 56.832 960 73.28 960l535.616 0 0-91.264L165.056 868.736C152.96 868.736 143.104 857.984 143.104 844.864z" p-id="5800" fill="#ffffff"></path><path d="M980.48 657.152 826.752 657.152 826.752 512 670.656 512 670.656 657.152 517.056 657.152 517.056 809.472 670.656 809.472 670.656 960 826.752 960 826.752 809.472 980.48 809.472Z" p-id="5801" fill="#ffffff"></path></svg>