<?xml version="1.0" standalone="no"?><!DOCTYPE svg PUBLIC "-//W3C//DTD SVG 1.1//EN" "http://www.w3.org/Graphics/SVG/1.1/DTD/svg11.dtd"><svg t="1593847480479" class="icon" viewBox="0 0 1024 1024" version="1.1" xmlns="http://www.w3.org/2000/svg" p-id="6583" xmlns:xlink="http://www.w3.org/1999/xlink" width="64" height="64"><defs><style type="text/css"></style></defs><path d="M928 480c-17.664 0-32 14.336-32 32l0 320c0 17.664-14.336 32-32 32L160 864c-17.664 0-32-14.336-32-32L128 288c0-17.664 14.336-32 32-32l224 0 0 0c0 0 0 0 0 0 17.664 0 32-14.336 32-32s-14.336-32-32-32c-1.024 0-1.888 0.48-2.88 0.576L160.384 192.576c-52.96 0-95.904 43.008-95.904 96.064l0 543.872c0 53.056 42.944 96.064 95.904 96.064l704.224 0c52.96 0 95.904-43.008 95.904-96.064L960.512 512 960 512C960 494.336 945.664 480 928 480zM402.688 620.768c-1.92 4.128-3.168 8.608-3.168 13.44 0 17.664 14.336 32 32 32 15.456 0 27.744-11.168 30.752-25.76l0.64 0c37.12-189.696 193.984-336.256 388.672-358.272l-67.776 67.776c-12.512 12.512-12.512 32.768 0 45.248 12.512 12.512 32.768 12.512 45.248 0l122.528-122.528c12.512-12.512 12.512-32.768 0-45.248l-122.528-122.528c-12.512-12.512-32.768-12.512-45.248 0-12.512 12.512-12.512 32.768 0 45.248l67.52 67.52C628.256 239.872 448.224 405.408 402.688 620.768z" p-id="6584" fill="#ffffff"></path></svg>