<?xml version="1.0" standalone="no"?><!DOCTYPE svg PUBLIC "-//W3C//DTD SVG 1.1//EN" "http://www.w3.org/Graphics/SVG/1.1/DTD/svg11.dtd"><svg t="1594450775078" class="icon" viewBox="0 0 1024 1024" version="1.1" xmlns="http://www.w3.org/2000/svg" p-id="2980" xmlns:xlink="http://www.w3.org/1999/xlink" width="16" height="16"><defs><style type="text/css"></style></defs><path d="M416 384c-19.2 0-32 12.8-32 32v320c0 19.2 12.8 32 32 32s32-12.8 32-32v-320c0-19.2-12.8-32-32-32z" p-id="2981" fill="#828385"></path><path d="M928 192h-224v-32c0-54.4-41.6-96-96-96h-192c-54.4 0-96 41.6-96 96v32h-224c-19.2 0-32 12.8-32 32s12.8 32 32 32h64v608c0 54.4 41.6 96 96 96h512c54.4 0 96-41.6 96-96v-608h64c19.2 0 32-12.8 32-32s-12.8-32-32-32z m-544-32c0-19.2 12.8-32 32-32h192c19.2 0 32 12.8 32 32v32h-256v-32z m416 704c0 19.2-12.8 32-32 32h-512c-19.2 0-32-12.8-32-32v-608h576v608z" p-id="2982" fill="#828385"></path><path d="M608 384c-19.2 0-32 12.8-32 32v320c0 19.2 12.8 32 32 32s32-12.8 32-32v-320c0-19.2-12.8-32-32-32z" p-id="2983" fill="#828385"></path></svg>