<?xml version="1.0" standalone="no"?><!DOCTYPE svg PUBLIC "-//W3C//DTD SVG 1.1//EN" "http://www.w3.org/Graphics/SVG/1.1/DTD/svg11.dtd"><svg t="1593766913465" class="icon" viewBox="0 0 1024 1024" version="1.1" xmlns="http://www.w3.org/2000/svg" p-id="2460" xmlns:xlink="http://www.w3.org/1999/xlink" width="128" height="128"><defs><style type="text/css"></style></defs><path d="M511.999767 0c267.031273 0 484.305455 211.130182 488.657455 473.6l0.069818 8.029091V791.272727a46.545455 46.545455 0 0 1-92.974545 3.490909L907.636131 791.272727V481.629091C907.636131 267.217455 730.670313 93.090909 511.999767 93.090909 295.865949 93.090909 120.482676 263.214545 116.433222 474.181818l-0.069818 7.447273V791.272727a46.545455 46.545455 0 0 1-92.974546 3.490909L23.272495 791.272727V481.629091C23.272495 215.458909 242.268858 0 511.999767 0z" fill="#ffffff" p-id="2461"></path><path d="M255.999767 512a139.636364 139.636364 0 0 0-139.636363 139.636364v232.727272a139.636364 139.636364 0 1 0 279.272727 0V651.636364a139.636364 139.636364 0 0 0-139.636364-139.636364z m0 93.090909a46.545455 46.545455 0 0 1 46.545455 46.545455v232.727272a46.545455 46.545455 0 1 1-93.090909 0V651.636364a46.545455 46.545455 0 0 1 46.545454-46.545455zM767.999767 512a139.636364 139.636364 0 0 0-139.636363 139.636364v232.727272a139.636364 139.636364 0 1 0 279.272727 0V651.636364a139.636364 139.636364 0 0 0-139.636364-139.636364z m0 93.090909a46.545455 46.545455 0 0 1 46.545455 46.545455v232.727272a46.545455 46.545455 0 1 1-93.090909 0V651.636364a46.545455 46.545455 0 0 1 46.545454-46.545455z" fill="#ffffff" p-id="2462"></path></svg>