<?xml version="1.0" standalone="no"?><!DOCTYPE svg PUBLIC "-//W3C//DTD SVG 1.1//EN" "http://www.w3.org/Graphics/SVG/1.1/DTD/svg11.dtd"><svg t="1593513111578" class="icon" viewBox="0 0 1024 1024" version="1.1" xmlns="http://www.w3.org/2000/svg" p-id="5749" xmlns:xlink="http://www.w3.org/1999/xlink" width="32" height="32"><defs><style type="text/css"></style></defs><path d="M136.975 459.498c19.802-8.927 39.667-13.894 57.321-15.067V176.836h318.018V480.64h-0.016c-0.304 26.293-29.81 58.951-73.636 78.663-51.578 23.215-103.462 19.681-115.861-7.876-12.399-27.572 19.361-68.716 70.954-91.93 19.865-8.943 39.743-13.908 57.413-15.081V282.079H255.441v195.819c1.828 26.719-28.196 60.993-73.575 81.405-51.578 23.215-103.446 19.681-115.845-7.876-12.415-27.571 19.361-68.715 70.954-91.929z m307.339 244.457C329.991 755.397 259.586 846.611 287.066 907.68c27.48 61.084 142.442 68.913 256.765 17.472 105.213-47.344 173.229-128.368 161.987-188.584V406.532c120.994 13.466 187.608 29.004 135.177 172.056l35.905 28.09c88.487-89.707 115.663-158.666 44.799-271.328-56.635-90.072-159.259-179.2-215.88-273.34H595.67v608.037c-44.648-1.158-98.07 9.931-151.356 33.908z" p-id="5750" fill="#d4237a"></path></svg>