<?xml version="1.0" standalone="no"?><!DOCTYPE svg PUBLIC "-//W3C//DTD SVG 1.1//EN" "http://www.w3.org/Graphics/SVG/1.1/DTD/svg11.dtd"><svg t="1593512746705" class="icon" viewBox="0 0 1028 1024" version="1.1" xmlns="http://www.w3.org/2000/svg" p-id="3387" xmlns:xlink="http://www.w3.org/1999/xlink" width="32.125" height="32"><defs><style type="text/css"></style></defs><path d="M509.529809 16.515803c-277.663467 0-502.677378 225.07559-502.677378 502.676367 0 277.599766 225.013911 502.677378 502.677378 502.677378 277.662456 0 502.676367-225.077612 502.676367-502.677378C1012.206176 241.592404 787.193276 16.515803 509.529809 16.515803zM823.70317 582.028865 698.032814 582.028865l0 188.505028-62.834672 0 0 62.834672-62.834672 0 0-62.834672 62.834672 0 0-188.505028L509.529809 582.028865l0 62.834672 62.834672 0 0 62.834672-62.834672 0 0-62.834672-62.834672 0 0-62.834672-62.834672 0 0 251.338689-62.835683 0 0-188.505028-62.834672 0-62.834672 0 0-62.834672 62.834672 0 62.834672 0 0-62.835683 62.835683 0 0-62.833661 62.834672 0 0-62.834672 62.834672 0 0-62.834672L383.861475 330.689164l-62.835683 0 0 62.834672-62.834672 0 0 62.834672-62.834672 0 0-62.834672 62.834672 0 0-62.834672 62.834672 0L321.025792 205.01982l62.835683 0 0 62.835683 125.669345 0 0 62.834672 62.834672 0 0-62.834672L572.365492 205.01982l62.834672 0 0 62.835683 125.670356 0 0 62.834672L635.199153 330.690175l-62.834672 0 0 62.834672-62.834672 0 0 62.834672-62.834672 0 0 62.833661 188.503006 0L635.198142 393.523837l62.834672 0 0 125.668333 125.670356 0L823.70317 582.028865z" p-id="3388" fill="#ffffff"></path></svg>