<?xml version="1.0" standalone="no"?><!DOCTYPE svg PUBLIC "-//W3C//DTD SVG 1.1//EN" "http://www.w3.org/Graphics/SVG/1.1/DTD/svg11.dtd"><svg t="1593519381791" class="icon" viewBox="0 0 1024 1024" version="1.1" xmlns="http://www.w3.org/2000/svg" p-id="7686" xmlns:xlink="http://www.w3.org/1999/xlink" width="32" height="32"><defs><style type="text/css"></style></defs><path d="M729.9 756.7H292.2c-14.9 0-27-12.1-27-27V292c0-14.9 12.1-27 27-27h437.7c14.9 0 27 12.1 27 27v437.7c0 14.9-12.1 27-27 27z m-434.7-30h431.7V295H295.2v431.7z" p-id="7687" fill="#ffffff"></path><path d="M832.1 658c-8.3 0-15-6.7-15-15V207.8h-433c-8.3 0-15-6.7-15-15s6.7-15 15-15h447.2c6 0 11.5 3.6 13.8 9.2l0.8 2c0.8 1.9 1.2 3.8 1.2 5.8V643c0 8.2-6.7 15-15 15z" p-id="7688" fill="#ffffff"></path></svg>