<?xml version="1.0" standalone="no"?><!DOCTYPE svg PUBLIC "-//W3C//DTD SVG 1.1//EN" "http://www.w3.org/Graphics/SVG/1.1/DTD/svg11.dtd"><svg t="1593691369434" class="icon" viewBox="0 0 1024 1024" version="1.1" xmlns="http://www.w3.org/2000/svg" p-id="3003" xmlns:xlink="http://www.w3.org/1999/xlink" width="128" height="128"><defs><style type="text/css"></style></defs><path d="M246.121279 955.6957l438.050717-438.050717c2.822492-2.822492 2.822492-7.902977 0-11.289967L244.992282 67.175303c-6.77398-6.77398-10.725469-16.370452-10.725469-25.966924L234.266814 36.692393C234.266814 16.370452 250.637266 0 270.959206 0l4.515987 0c9.596472 0 19.192944 3.951488 25.966924 10.725469l478.694598 478.694598c12.418964 12.418964 12.418964 32.740904 0 45.159868l-477.565601 477.565601c-7.338479 7.338479-17.499449 11.854465-28.224917 11.854465l0 0c-22.015436 0-40.079383-18.063947-40.079383-40.079383l0 0C234.266814 973.759647 238.7828 963.598677 246.121279 955.6957z" p-id="3004" fill="#ffffff"></path></svg>