<?xml version="1.0" standalone="no"?><!DOCTYPE svg PUBLIC "-//W3C//DTD SVG 1.1//EN" "http://www.w3.org/Graphics/SVG/1.1/DTD/svg11.dtd"><svg t="1593691301661" class="icon" viewBox="0 0 1024 1024" version="1.1" xmlns="http://www.w3.org/2000/svg" p-id="2223" xmlns:xlink="http://www.w3.org/1999/xlink" width="128" height="128"><defs><style type="text/css"></style></defs><path d="M784.652701 955.6957 346.601985 517.644983c-2.822492-2.822492-2.822492-7.902977 0-11.289967l439.179713-439.179713c6.77398-6.77398 10.725469-16.370452 10.725469-25.966924L796.507166 36.692393c0-20.32194-16.370452-36.692393-36.692393-36.692393l-4.515987 0c-9.596472 0-19.192944 3.951488-25.966924 10.725469L250.072767 489.420066c-12.418964 12.418964-12.418964 32.740904 0 45.159868l477.565601 477.565601c7.338479 7.338479 17.499449 11.854465 28.224917 11.854465l0 0c22.015436 0 40.079383-18.063947 40.079383-40.079383l0 0C796.507166 973.759647 791.99118 963.598677 784.652701 955.6957z" p-id="2224" fill="#ffffff"></path></svg>