<?xml version="1.0" standalone="no"?><!DOCTYPE svg PUBLIC "-//W3C//DTD SVG 1.1//EN" "http://www.w3.org/Graphics/SVG/1.1/DTD/svg11.dtd"><svg t="1593648309941" class="icon" viewBox="0 0 1024 1024" version="1.1" xmlns="http://www.w3.org/2000/svg" p-id="3158" width="128" height="128" xmlns:xlink="http://www.w3.org/1999/xlink"><defs><style type="text/css"></style></defs><path d="M512 819.1c-28.4 0-51.5 23.1-51.5 51.5 0 28.4 23.1 51.5 51.5 51.5 28.4 0 51.5-23.1 51.5-51.5C563.5 842.2 540.4 819.1 512 819.1z" p-id="3159" fill="#f29c9f"></path><path d="M822.8 28.5c-15-15-35-23.3-56.2-23.3L257.4 5.2c-43.8 0-79.5 35.7-79.5 79.5l0 854.6c0 43.8 35.7 79.5 79.5 79.5l509.2 0c43.8 0 79.5-35.7 79.5-79.5L846.1 84.7C846.1 63.5 837.9 43.5 822.8 28.5zM233.3 783l557.4 0 0 156.3c0 6.4-2.5 12.5-7.1 17-4.6 4.6-10.6 7.1-17 7.1L257.4 963.4c-13.3 0-24.1-10.8-24.1-24.1L233.3 783zM257.4 60.6l509.2 0c13.3 0 24.1 10.8 24.1 24.1l0 638.5L233.3 723.2 233.3 84.7C233.3 71.4 244.1 60.6 257.4 60.6z" p-id="3160" fill="#f29c9f"></path></svg>