<?xml version="1.0" standalone="no"?><!DOCTYPE svg PUBLIC "-//W3C//DTD SVG 1.1//EN" "http://www.w3.org/Graphics/SVG/1.1/DTD/svg11.dtd"><svg t="1594188657061" class="icon" viewBox="0 0 1024 1024" version="1.1" xmlns="http://www.w3.org/2000/svg" p-id="1571" xmlns:xlink="http://www.w3.org/1999/xlink" width="64" height="64"><defs><style type="text/css"></style></defs><path d="M928 476.8c-19.2 0-32 12.8-32 32v86.4c0 108.8-86.4 198.4-198.4 198.4H201.6l41.6-38.4c6.4-6.4 12.8-16 12.8-25.6 0-19.2-16-35.2-35.2-35.2-9.6 0-22.4 3.2-28.8 9.6l-108.8 99.2c-16 12.8-12.8 35.2 0 48l108.8 96c6.4 6.4 19.2 12.8 28.8 12.8 19.2 0 35.2-12.8 38.4-32 0-12.8-6.4-22.4-16-28.8l-48-44.8h499.2c147.2 0 265.6-118.4 265.6-259.2v-86.4c0-19.2-12.8-32-32-32zM96 556.8c19.2 0 32-12.8 32-32v-89.6c0-112 89.6-201.6 198.4-204.8h496l-41.6 38.4c-6.4 6.4-12.8 16-12.8 25.6 0 19.2 16 35.2 35.2 35.2 9.6 0 22.4-3.2 28.8-9.6l105.6-99.2c16-12.8 12.8-35.2 0-48l-108.8-96c-6.4-6.4-19.2-12.8-28.8-12.8-19.2 0-35.2 12.8-38.4 32 0 12.8 6.4 22.4 16 28.8l48 44.8H329.6C182.4 169.6 64 288 64 438.4v86.4c0 19.2 12.8 32 32 32z" p-id="1572" fill="#ffffff"></path><path d="M544 672V352h-48L416 409.6l16 41.6 60.8-41.6V672z" p-id="1573" fill="#ffffff"></path></svg>