<?xml version="1.0" standalone="no"?><!DOCTYPE svg PUBLIC "-//W3C//DTD SVG 1.1//EN" "http://www.w3.org/Graphics/SVG/1.1/DTD/svg11.dtd"><svg t="1594803501999" class="icon" viewBox="0 0 1024 1024" version="1.1" xmlns="http://www.w3.org/2000/svg" p-id="2112" xmlns:xlink="http://www.w3.org/1999/xlink" width="48" height="48"><defs><style type="text/css"></style></defs><path d="M59.534884 154.790698m35.72093 0l464.372093 0q35.72093 0 35.72093 35.72093l0 0q0 35.72093-35.72093 35.72093l-464.372093 0q-35.72093 0-35.72093-35.72093l0 0q0-35.72093 35.72093-35.72093Z" p-id="2113" fill="#ffffff"></path><path d="M59.534884 416.744186m35.72093 0l464.372093 0q35.72093 0 35.72093 35.72093l0 0q0 35.72093-35.72093 35.720931l-464.372093 0q-35.72093 0-35.72093-35.720931l0 0q0-35.72093 35.72093-35.72093Z" p-id="2114" fill="#ffffff"></path><path d="M59.534884 678.697674m35.72093 0l202.418605 0q35.72093 0 35.72093 35.720931l0 0q0 35.72093-35.72093 35.72093l-202.418605 0q-35.72093 0-35.72093-35.72093l0 0q0-35.72093 35.72093-35.720931Z" p-id="2115" fill="#ffffff"></path><path d="M891.141953 101.399814v87.790139l-99.08986 53.200373a35.72093 35.72093 0 1 0 33.803907 62.940279l117.902884-63.309396a35.72093 35.72093 0 0 0 18.813023-31.470139V43.305674c0-26.624-28.064744-43.889116-51.83107-31.874976L690.259349 122.915721a35.72093 35.72093 0 0 0-19.610791 31.874977v656.157767a35.72093 35.72093 0 1 0 71.441861 0V176.75907l149.051534-75.371163z" p-id="2116" fill="#ffffff"></path><path d="M527.205209 708.393674a391.227535 391.227535 0 0 0-56.224744 11.787907c-123.904 35.530419-212.08707 124.332651-187.892093 208.729303 24.194977 84.372837 146.027163 112.949581 269.931163 77.419163 119.808-34.351628 189.082791-109.127442 189.082791-207.669582a35.72093 35.72093 0 1 0-71.441861 0c0 63.345116-45.782326 112.747163-137.323163 139.002047-91.028837 26.088186-171.341395 7.263256-181.581395-28.457675-10.24-35.72093 47.88986-94.243721 138.906791-120.343814a319.797581 319.797581 0 0 1 45.937116-9.644651 35.72093 35.72093 0 0 0-9.406512-70.822698z" p-id="2117" fill="#ffffff"></path></svg>