<?xml version="1.0" standalone="no"?><!DOCTYPE svg PUBLIC "-//W3C//DTD SVG 1.1//EN" "http://www.w3.org/Graphics/SVG/1.1/DTD/svg11.dtd"><svg t="1594948403859" class="icon" viewBox="0 0 1024 1024" version="1.1" xmlns="http://www.w3.org/2000/svg" p-id="1815" width="128" height="128" xmlns:xlink="http://www.w3.org/1999/xlink"><defs><style type="text/css"></style></defs><path d="M752.5376 184.32h-205.056c-14.1824 0-25.6512 11.4688-25.6512 25.6s11.4688 25.6 25.6512 25.6h204.6976L567.296 420.0448a25.5232 25.5232 0 0 0 0 36.1984c5.0176 5.0176 11.5712 7.4752 18.1248 7.4752s13.1072-2.5088 18.1248-7.4752l184.8832-184.5248v204.288c0 14.1312 11.4688 25.6 25.6512 25.6 14.1824 0 25.6512-11.4688 25.6512-25.6V271.3088C839.68 223.3344 800.5632 184.32 752.5376 184.32zM476.5696 788.5312H271.8208l184.8832-184.5248a25.5232 25.5232 0 0 0 0-36.1984c-9.984-9.984-26.2144-9.984-36.2496 0l-184.8832 184.5248v-204.288c0-14.1312-11.4688-25.6-25.6512-25.6-14.1312 0-25.6512 11.4688-25.6512 25.6v204.6464c0 47.9744 39.1168 86.9888 87.1424 86.9888h205.056c14.1312 0 25.6512-11.4688 25.6512-25.6 0.0512-14.1312-11.4176-25.5488-25.5488-25.5488z" p-id="1816" fill="#ffffff"></path></svg>