<?xml version="1.0" standalone="no"?><!DOCTYPE svg PUBLIC "-//W3C//DTD SVG 1.1//EN" "http://www.w3.org/Graphics/SVG/1.1/DTD/svg11.dtd"><svg t="1594188753098" class="icon" viewBox="0 0 1024 1024" version="1.1" xmlns="http://www.w3.org/2000/svg" p-id="2200" xmlns:xlink="http://www.w3.org/1999/xlink" width="64" height="64"><defs><style type="text/css"></style></defs><path d="M747.52 309.4528a245.76 245.76 0 0 0-245.76 245.76v14.7456c-15.7696 38.912-17.408 56.7296-29.2864 68.1984a286.72 286.72 0 0 1-257.4336 162.816h-20.48v-40.96h20.48a245.76 245.76 0 0 0 239.2064-190.2592c2.4576-3.6864 4.5056-7.5776 6.7584-11.264s0-2.048 0-3.2768a286.72 286.72 0 0 1 286.72-286.72h61.44v40.96zM794.4192 721.5104l-87.04 86.2208a20.48 20.48 0 0 0 0 28.672 20.48 20.48 0 0 0 29.0816 0l87.04-86.2208a20.48 20.48 0 0 0 0-28.672 20.48 20.48 0 0 0-29.0816 0z" p-id="2201" fill="#ffffff"></path><path d="M792.576 303.5136l-86.8352-86.8352a20.48 20.48 0 1 1 28.8768-28.8768l86.8352 86.8352a20.48 20.48 0 0 1-28.8768 28.8768zM749.1584 715.5712A245.76 245.76 0 0 1 502.784 471.04v-14.7456c-15.7696-38.5024-17.6128-56.32-29.2864-67.7888a286.72 286.72 0 0 0-197.632-155.0336v40.96a245.76 245.76 0 0 1 178.7904 181.248c2.4576 3.6864 4.5056 7.5776 6.7584 11.264s0 2.048 0 3.072a286.72 286.72 0 0 0 286.72 284.672h61.44v-40.96zM235.52 228.352h-40.96v40.96h40.96z" p-id="2202" fill="#ffffff"></path></svg>