<?xml version="1.0" standalone="no"?><!DOCTYPE svg PUBLIC "-//W3C//DTD SVG 1.1//EN" "http://www.w3.org/Graphics/SVG/1.1/DTD/svg11.dtd"><svg t="1594188797895" class="icon" viewBox="0 0 1024 1024" version="1.1" xmlns="http://www.w3.org/2000/svg" p-id="2431" xmlns:xlink="http://www.w3.org/1999/xlink" width="64" height="64"><defs><style type="text/css"></style></defs><path d="M931.968 960 91.968 960C76.544 960 64 947.456 64 932.032l0-56c0-15.488 12.544-28.032 27.968-28.032l840 0c15.488 0 28.032 12.544 28.032 28.032l0 56C960 947.456 947.456 960 931.968 960zM931.968 568l-448 0c-15.488 0-28.032-12.544-28.032-28.032L455.936 483.968c0-15.488 12.544-28.032 28.032-28.032l448 0C947.456 456 960 468.544 960 483.968l0 56C960 555.456 947.456 568 931.968 568zM931.968 176l-448 0c-15.488 0-28.032-12.544-28.032-28.032L455.936 91.968C456 76.544 468.544 64 483.968 64l448 0C947.456 64 960 76.544 960 91.968l0 56C960 163.456 947.456 176 931.968 176zM232.064 512 232 511.808 232 91.968C232 76.544 244.544 64 259.968 64l56 0c15.488 0 28.032 12.544 28.032 27.968L344 512l0 232.128c0 17.664-21.376 26.496-33.856 14.016L97.856 545.856C85.376 533.376 94.208 512 111.872 512L232.064 512z" p-id="2432" fill="#ffffff"></path></svg>