<?xml version="1.0" standalone="no"?><!DOCTYPE svg PUBLIC "-//W3C//DTD SVG 1.1//EN" "http://www.w3.org/Graphics/SVG/1.1/DTD/svg11.dtd"><svg t="1594110433142" class="icon" viewBox="0 0 1024 1024" version="1.1" xmlns="http://www.w3.org/2000/svg" p-id="3624" xmlns:xlink="http://www.w3.org/1999/xlink" width="64" height="64"><defs><style type="text/css"></style></defs><path d="M843.225212 872.454971c-10.751505 0-19.455105-8.7036-19.455105-19.455105 0-6.143717 3.071859-11.775458 8.191623-15.359293l6.143717-6.655694c94.715643-90.619831 146.937241-211.446273 146.937241-341.488292 0-122.362371-46.589857-238.069049-131.577947-327.152951-4.095812-4.095812-6.655694-9.215576-6.655694-14.33534 0-10.751505 8.7036-19.455105 19.455105-19.455105 6.143717 0 12.287435 3.583835 15.87127 9.215576l6.655694 6.143717c87.035996 94.715643 135.161783 217.589991 135.161782 345.584103 0 139.769571-55.805433 270.323565-157.688746 368.111067 0-0.511976-16.895223 14.847317-23.03894 14.847317z m-114.682725-143.865382c-10.751505 0-19.455105-8.7036-19.455105-19.455105 0-5.631741 2.559882-11.263482 7.679647-14.847317l5.631741-7.679647c42.494045-51.709621 66.044962-116.73063 66.044962-183.799545 0-68.604844-24.062893-134.649806-68.604845-186.871404l0.511977-0.511977-5.631741-6.143717c-3.583835-3.583835-5.631741-8.191623-5.631741-13.311388 0-10.751505 8.7036-19.455105 19.455105-19.455105 8.191623 0 14.335341 4.095812 16.383246 7.167671l5.119765 7.16767c50.173692 59.389268 77.82042 134.13783 77.82042 211.95825s-27.646728 152.057005-77.308444 211.446273l-6.143717 6.143718c-4.607788 5.631741-10.239529 8.191623-15.87127 8.191623zM551.910612 1024c-27.134752 0-55.805433-13.311388-82.428208-38.91021l-225.269638-218.613944H110.074937C40.958116 766.475846 0 725.005754 0 654.86498V368.670145c0-70.65275 39.934163-111.610866 110.074937-111.610866h134.137829l225.269638-218.613943C506.344708 3.630937 548.838753-8.656498 583.653152 6.190819c36.862304 15.87127 58.365315 58.365315 58.365315 116.218654V901.125652c0 58.365315-20.991034 100.85936-58.365315 116.218654-10.751505 4.607788-20.991034 6.655694-31.74254 6.655694zM110.074937 308.256924c-40.958116 0-58.877292 17.919176-58.877292 60.413221v286.194835c0 40.958116 18.431152 60.413221 58.877292 60.413221h154.616887l240.116955 232.949285c21.503011 20.479058 43.006022 28.670681 58.365315 22.014987 16.895223-7.16767 27.134752-33.278469 27.134752-69.628797v-778.204203c0-35.838351-10.239529-61.94915-27.134752-69.11682-15.359293-6.655694-37.374281 1.535929-58.365315 22.014987L264.691824 308.256924H110.074937z" p-id="3625" fill="#ffffff"></path></svg>