<?xml version="1.0" standalone="no"?><!DOCTYPE svg PUBLIC "-//W3C//DTD SVG 1.1//EN" "http://www.w3.org/Graphics/SVG/1.1/DTD/svg11.dtd"><svg t="1594274390324" class="icon" viewBox="0 0 1024 1024" version="1.1" xmlns="http://www.w3.org/2000/svg" p-id="4068" xmlns:xlink="http://www.w3.org/1999/xlink" width="64" height="64"><defs><style type="text/css"></style></defs><path d="M512 1024a512 512 0 1 1 512-512 512 512 0 0 1-512 512z m0-992a480 480 0 1 0 480 480A480 480 0 0 0 512 32z m145.744 506.64l-192 127.84A32 32 0 0 1 416 639.888v-255.68a32 32 0 0 1 49.744-26.592l192 127.84a32 32 0 0 1 0 53.184zM620.8 493.248l-150.224-99.088A45.488 45.488 0 0 0 448 389.568v243.376a51.2 51.2 0 0 0 22.576-5.616l150.224-92.576a26.128 26.128 0 0 0 11.712-21.76 22.784 22.784 0 0 0-11.712-19.744z" p-id="4069" fill="#ffffff"></path></svg>